<svg width="200" height="54" xmlns="http://www.w3.org/2000/svg">
 <!-- Generator: Sketch 51.1 (57501) - http://www.bohemiancoding.com/sketch -->
 <title>Group 3</title>
 <desc>Created with Sketch.</desc>

 <g>
  <title>background</title>
  <rect fill="none" id="canvas_background" height="56" width="202" y="-1" x="-1"/>
 </g>
 <g>
  <title>Layer 1</title>
  <path stroke="#000" id="svg_8" d="m50.651093,20.459962c-1.72611,1.917498 -9.159575,4.349579 -10.118324,4.349579l-8.148465,0c-1.35236,0 -3.389025,0.265416 -4.347774,0.873888c0.110139,0.0975 0.220278,0.195 0.326805,0.294305c0.736666,0.684305 2.459164,1.648471 3.983052,1.648471c0.716805,0 1.305415,-0.207639 1.805554,-0.639166c2.126943,-1.818193 3.231942,-2.031248 3.872913,-2.031248c0.760138,0 1.413749,0.348472 1.798332,0.958749c0.722222,1.130277 0.191389,2.609025 -0.350277,3.768191c-1.296388,2.751664 -5.521384,5.725411 -10.102074,5.725411c-0.003611,0 -0.003611,0 -0.007222,0c-0.639166,0 -1.265693,-0.059583 -1.865137,-0.17875l0,5.869855c0,1.339721 1.865137,4.573468 7.523743,4.573468s7.140966,-6.682354 7.140966,-7.832492l0,-8.146658c4.026385,-2.110692 8.146659,-3.259024 10.118324,-7.032632c1.854304,-3.546108 0.093889,-4.118468 -1.630415,-2.20097zm-12.656933,8.533047c1.437221,-3.067636 -0.095694,-3.067636 -2.780553,-0.76736s-6.617355,0.189583 -7.958882,-1.056249c-1.341527,-1.244027 -2.683053,-2.202776 -5.080829,-2.107081c-2.397776,0.095694 -8.05277,-0.290694 -11.315406,-1.056249c-3.259025,-0.76736 -8.838186,-5.416661 -9.298603,-4.215968c-0.480277,1.245832 0.380972,2.108887 2.108887,4.215968c1.724304,2.110692 9.163186,5.015828 9.163186,5.015828s0,6.234577 0,8.821936c0,2.59097 5.367912,6.518049 8.146659,6.518049s4.88944,-1.917498 4.88944,-3.26083l0,-8.146658c4.602357,2.401386 10.688879,-0.891944 12.1261,-3.961385zm-2.888886,-6.844854c3.148886,0 5.703745,-2.553053 5.703745,-5.701939c0,-3.150691 -2.554859,-5.703744 -5.703745,-5.703744s-5.701939,2.553053 -5.701939,5.703744c0,3.148886 2.553053,5.701939 5.701939,5.701939zm-15.027625,0c3.148886,0 5.701939,-2.553053 5.701939,-5.701939c0,-3.150691 -2.553053,-5.703744 -5.701939,-5.703744c-3.150692,0 -5.703745,2.553053 -5.703745,5.703744c0,3.148886 2.551248,5.701939 5.703745,5.701939z" fill-opacity="null" stroke-opacity="null" stroke-width="0" fill="#ff7f00"/>
  <text stroke="#000" transform="matrix(1.249984622001648,0,0,1.249984622001648,-21.358061142265797,-2.3553238604217768) " font-weight="bold" xml:space="preserve" text-anchor="start" font-family="'Trebuchet MS', Gadget, sans-serif" font-size="24" id="svg_9" y="31.379149" x="61.977571" fill-opacity="null" stroke-opacity="null" stroke-width="0" fill="#7246f4">poin siswa</text>
 </g>
</svg>